<?xml version="1.0" encoding="utf-8"?>
<svg 
	version="1.1" 
	xmlns="http://www.w3.org/2000/svg" 
	xmlns:xlink="http://www.w3.org/1999/xlink"
	viewBox="0 0 1000 1000" 
	xml:space="preserve"
>
<g><path d="M778.8,990H221.2c-101.4,0-170.4-61.9-170.4-165.2c0-144.2,33.8-365.6,220.8-365.6c19.8,0,103.4,88.7,228.4,88.7c125,0,208.6-88.7,228.4-88.7c186.9,0,220.8,221.4,220.8,365.6C949.2,928.1,880.3,990,778.8,990L778.8,990z M500,500c-135.3,0-245-109.7-245-245c0-135.3,109.7-245,245-245c135.3,0,245,109.7,245,245C745,390.3,635.3,500,500,500L500,500z"/></g>
</svg>